<svg width="17" height="17" viewBox="0 0 17 17" fill="none" xmlns="http://www.w3.org/2000/svg">
<rect width="17" height="17" fill="#F5F5F5"/>
<circle cx="8.5" cy="8.5" r="8.5" fill="white"/>
<path d="M6.784 7.732V10.948C6.784 11.172 6.836 11.336 6.94 11.44C7.052 11.536 7.236 11.584 7.492 11.584H8.272V13H7.216C5.8 13 5.092 12.312 5.092 10.936V7.732H4.3V6.352H5.092V4.708H6.784V6.352H8.272V7.732H6.784ZM11.4363 7.732V10.948C11.4363 11.172 11.4883 11.336 11.5923 11.44C11.7043 11.536 11.8883 11.584 12.1443 11.584H12.9243V13H11.8683C10.4523 13 9.74434 12.312 9.74434 10.936V7.732H8.95234V6.352H9.74434V4.708H11.4363V6.352H12.9243V7.732H11.4363Z" fill="black"/>
<rect x="3" y="6" width="10" height="2" fill="#3254FE"/>
</svg>
