<svg width="270" height="89" viewBox="0 0 270 89" fill="none" xmlns="http://www.w3.org/2000/svg">
<rect width="270" height="89" fill="#E5E5E5"/>
<rect width="270" height="89" fill="white"/>
<rect x="105" y="20" width="45" height="39" fill="white"/>
<path d="M75.032 67.768C68.952 67.768 64.216 66.232 60.824 63.16C57.432 60.024 55.736 55.384 55.736 49.24V3.928H70.712V49.048C70.712 51.224 71.288 52.92 72.44 54.136C73.592 55.288 75.16 55.864 77.144 55.864C79.512 55.864 81.528 55.224 83.192 53.944L87.224 64.504C85.688 65.592 83.832 66.424 81.656 67C79.544 67.512 77.336 67.768 75.032 67.768ZM47.768 28.024V16.504H83.576V28.024H47.768ZM113.871 67.768C107.791 67.768 103.055 66.232 99.6627 63.16C96.2707 60.024 94.5747 55.384 94.5747 49.24V3.928H109.551V49.048C109.551 51.224 110.127 52.92 111.279 54.136C112.431 55.288 113.999 55.864 115.983 55.864C118.351 55.864 120.367 55.224 122.031 53.944L126.063 64.504C124.527 65.592 122.671 66.424 120.495 67C118.383 67.512 116.175 67.768 113.871 67.768ZM86.6067 28.024V16.504H122.415V28.024H86.6067ZM154.63 67.768C148.55 67.768 143.814 66.232 140.422 63.16C137.03 60.024 135.334 55.384 135.334 49.24V3.928H150.31V49.048C150.31 51.224 150.886 52.92 152.038 54.136C153.19 55.288 154.758 55.864 156.742 55.864C159.11 55.864 161.126 55.224 162.79 53.944L166.822 64.504C165.286 65.592 163.43 66.424 161.254 67C159.142 67.512 156.934 67.768 154.63 67.768ZM127.366 28.024V16.504H163.174V28.024H127.366ZM214.252 28.264V67H203.524V62.536C200.74 65.896 196.708 67.576 191.428 67.576C187.78 67.576 184.468 66.76 181.492 65.128C178.564 63.496 176.26 61.168 174.58 58.144C172.9 55.12 172.06 51.616 172.06 47.632C172.06 43.648 172.9 40.144 174.58 37.12C176.26 34.096 178.564 31.768 181.492 30.136C184.468 28.504 187.78 27.688 191.428 27.688C196.372 27.688 200.236 29.248 203.02 32.368V28.264H214.252ZM193.372 58.36C196.204 58.36 198.556 57.4 200.428 55.48C202.3 53.512 203.236 50.896 203.236 47.632C203.236 44.368 202.3 41.776 200.428 39.856C198.556 37.888 196.204 36.904 193.372 36.904C190.492 36.904 188.116 37.888 186.244 39.856C184.372 41.776 183.436 44.368 183.436 47.632C183.436 50.896 184.372 53.512 186.244 55.48C188.116 57.4 190.492 58.36 193.372 58.36Z" fill="black"/>
<rect x="55" y="3" width="16" height="25" fill="#62EB08"/>
<rect x="40" width="44" height="31" fill="white"/>
<rect x="55" y="16" width="110" height="12" fill="#3254FE"/>
<path d="M225.264 40.016L249.24 48.8L225.264 57.512V66.512L259.536 53.48V44.12L225.264 31.088V40.016Z" fill="black"/>
<path d="M44.736 40.016L20.76 48.8L44.736 57.512V66.512L10.464 53.48V44.12L44.736 31.088V40.016Z" fill="black"/>
<path d="M8.1945 76.671V84H6.7245V76.671H8.1945ZM15.9154 84H14.4454L11.1169 78.9705V84H9.64686V76.6605H11.1169L14.4454 81.7005V76.6605H15.9154V84ZM21.8936 76.671V77.8575H18.8381V79.737H21.1796V80.9025H18.8381V84H17.3681V76.671H21.8936ZM26.3379 84.0735C25.6519 84.0735 25.0219 83.9125 24.4479 83.5905C23.8739 83.2685 23.4189 82.824 23.0829 82.257C22.7469 81.683 22.5789 81.0355 22.5789 80.3145C22.5789 79.6005 22.7469 78.96 23.0829 78.393C23.4189 77.819 23.8739 77.371 24.4479 77.049C25.0219 76.727 25.6519 76.566 26.3379 76.566C27.0309 76.566 27.6609 76.727 28.2279 77.049C28.8019 77.371 29.2534 77.819 29.5824 78.393C29.9184 78.96 30.0864 79.6005 30.0864 80.3145C30.0864 81.0355 29.9184 81.683 29.5824 82.257C29.2534 82.824 28.8019 83.2685 28.2279 83.5905C27.6539 83.9125 27.0239 84.0735 26.3379 84.0735ZM26.3379 82.761C26.7789 82.761 27.1674 82.663 27.5034 82.467C27.8394 82.264 28.1019 81.977 28.2909 81.606C28.4799 81.235 28.5744 80.8045 28.5744 80.3145C28.5744 79.8245 28.4799 79.3975 28.2909 79.0335C28.1019 78.6625 27.8394 78.379 27.5034 78.183C27.1674 77.987 26.7789 77.889 26.3379 77.889C25.8969 77.889 25.5049 77.987 25.1619 78.183C24.8259 78.379 24.5634 78.6625 24.3744 79.0335C24.1854 79.3975 24.0909 79.8245 24.0909 80.3145C24.0909 80.8045 24.1854 81.235 24.3744 81.606C24.5634 81.977 24.8259 82.264 25.1619 82.467C25.5049 82.663 25.8969 82.761 26.3379 82.761ZM34.9601 84L33.3431 81.144H32.6501V84H31.1801V76.671H33.9311C34.4981 76.671 34.9811 76.7725 35.3801 76.9755C35.7791 77.1715 36.0766 77.441 36.2726 77.784C36.4756 78.12 36.5771 78.498 36.5771 78.918C36.5771 79.401 36.4371 79.8385 36.1571 80.2305C35.8771 80.6155 35.4606 80.8815 34.9076 81.0285L36.6611 84H34.9601ZM32.6501 80.0415H33.8786C34.2776 80.0415 34.5751 79.947 34.7711 79.758C34.9671 79.562 35.0651 79.2925 35.0651 78.9495C35.0651 78.6135 34.9671 78.3545 34.7711 78.1725C34.5751 77.9835 34.2776 77.889 33.8786 77.889H32.6501V80.0415ZM45.8971 76.671V84H44.4271V79.233L42.4636 84H41.3506L39.3766 79.233V84H37.9066V76.671H39.5761L41.9071 82.1205L44.2381 76.671H45.8971ZM51.8445 82.6035H48.9255L48.4425 84H46.899L49.5345 76.6605H51.246L53.8815 84H52.3275L51.8445 82.6035ZM51.4455 81.4275L50.385 78.3615L49.3245 81.4275H51.4455ZM59.8541 76.671V77.8575H57.9011V84H56.4311V77.8575H54.4781V76.671H59.8541ZM62.3966 76.671V84H60.9266V76.671H62.3966ZM67.251 84.0735C66.565 84.0735 65.935 83.9125 65.361 83.5905C64.787 83.2685 64.332 82.824 63.996 82.257C63.66 81.683 63.492 81.0355 63.492 80.3145C63.492 79.6005 63.66 78.96 63.996 78.393C64.332 77.819 64.787 77.371 65.361 77.049C65.935 76.727 66.565 76.566 67.251 76.566C67.944 76.566 68.574 76.727 69.141 77.049C69.715 77.371 70.1665 77.819 70.4955 78.393C70.8315 78.96 70.9995 79.6005 70.9995 80.3145C70.9995 81.0355 70.8315 81.683 70.4955 82.257C70.1665 82.824 69.715 83.2685 69.141 83.5905C68.567 83.9125 67.937 84.0735 67.251 84.0735ZM67.251 82.761C67.692 82.761 68.0805 82.663 68.4165 82.467C68.7525 82.264 69.015 81.977 69.204 81.606C69.393 81.235 69.4875 80.8045 69.4875 80.3145C69.4875 79.8245 69.393 79.3975 69.204 79.0335C69.015 78.6625 68.7525 78.379 68.4165 78.183C68.0805 77.987 67.692 77.889 67.251 77.889C66.81 77.889 66.418 77.987 66.075 78.183C65.739 78.379 65.4765 78.6625 65.2875 79.0335C65.0985 79.3975 65.004 79.8245 65.004 80.3145C65.004 80.8045 65.0985 81.235 65.2875 81.606C65.4765 81.977 65.739 82.264 66.075 82.467C66.418 82.663 66.81 82.761 67.251 82.761ZM78.3617 84H76.8917L73.5632 78.9705V84H72.0932V76.6605H73.5632L76.8917 81.7005V76.6605H78.3617V84ZM87.3038 76.671V77.8575H85.3508V84H83.8808V77.8575H81.9278V76.671H87.3038ZM89.8464 77.8575V79.695H92.3139V80.8605H89.8464V82.803H92.6289V84H88.3764V76.6605H92.6289V77.8575H89.8464ZM93.6077 80.325C93.6077 79.604 93.7687 78.96 94.0907 78.393C94.4197 77.819 94.8642 77.3745 95.4242 77.0595C95.9912 76.7375 96.6247 76.5765 97.3247 76.5765C98.1437 76.5765 98.8612 76.7865 99.4772 77.2065C100.093 77.6265 100.524 78.2075 100.769 78.9495H99.0782C98.9102 78.5995 98.6722 78.337 98.3642 78.162C98.0632 77.987 97.7132 77.8995 97.3142 77.8995C96.8872 77.8995 96.5057 78.001 96.1697 78.204C95.8407 78.4 95.5817 78.68 95.3927 79.044C95.2107 79.408 95.1197 79.835 95.1197 80.325C95.1197 80.808 95.2107 81.235 95.3927 81.606C95.5817 81.97 95.8407 82.2535 96.1697 82.4565C96.5057 82.6525 96.8872 82.7505 97.3142 82.7505C97.7132 82.7505 98.0632 82.663 98.3642 82.488C98.6722 82.306 98.9102 82.04 99.0782 81.69H100.769C100.524 82.439 100.093 83.0235 99.4772 83.4435C98.8682 83.8565 98.1507 84.063 97.3247 84.063C96.6247 84.063 95.9912 83.9055 95.4242 83.5905C94.8642 83.2685 94.4197 82.824 94.0907 82.257C93.7687 81.69 93.6077 81.046 93.6077 80.325ZM108.104 76.671V84H106.634V80.8815H103.494V84H102.024V76.671H103.494V79.6845H106.634V76.671H108.104ZM115.819 84H114.349L111.021 78.9705V84H109.551V76.6605H111.021L114.349 81.7005V76.6605H115.819V84ZM120.674 84.0735C119.988 84.0735 119.358 83.9125 118.784 83.5905C118.21 83.2685 117.755 82.824 117.419 82.257C117.083 81.683 116.915 81.0355 116.915 80.3145C116.915 79.6005 117.083 78.96 117.419 78.393C117.755 77.819 118.21 77.371 118.784 77.049C119.358 76.727 119.988 76.566 120.674 76.566C121.367 76.566 121.997 76.727 122.564 77.049C123.138 77.371 123.589 77.819 123.918 78.393C124.254 78.96 124.422 79.6005 124.422 80.3145C124.422 81.0355 124.254 81.683 123.918 82.257C123.589 82.824 123.138 83.2685 122.564 83.5905C121.99 83.9125 121.36 84.0735 120.674 84.0735ZM120.674 82.761C121.115 82.761 121.503 82.663 121.839 82.467C122.175 82.264 122.438 81.977 122.627 81.606C122.816 81.235 122.91 80.8045 122.91 80.3145C122.91 79.8245 122.816 79.3975 122.627 79.0335C122.438 78.6625 122.175 78.379 121.839 78.183C121.503 77.987 121.115 77.889 120.674 77.889C120.233 77.889 119.841 77.987 119.498 78.183C119.162 78.379 118.899 78.6625 118.71 79.0335C118.521 79.3975 118.427 79.8245 118.427 80.3145C118.427 80.8045 118.521 81.235 118.71 81.606C118.899 81.977 119.162 82.264 119.498 82.467C119.841 82.663 120.233 82.761 120.674 82.761ZM126.986 82.8345H129.401V84H125.516V76.671H126.986V82.8345ZM133.737 84.0735C133.051 84.0735 132.421 83.9125 131.847 83.5905C131.273 83.2685 130.818 82.824 130.482 82.257C130.146 81.683 129.978 81.0355 129.978 80.3145C129.978 79.6005 130.146 78.96 130.482 78.393C130.818 77.819 131.273 77.371 131.847 77.049C132.421 76.727 133.051 76.566 133.737 76.566C134.43 76.566 135.06 76.727 135.627 77.049C136.201 77.371 136.653 77.819 136.982 78.393C137.318 78.96 137.486 79.6005 137.486 80.3145C137.486 81.0355 137.318 81.683 136.982 82.257C136.653 82.824 136.201 83.2685 135.627 83.5905C135.053 83.9125 134.423 84.0735 133.737 84.0735ZM133.737 82.761C134.178 82.761 134.567 82.663 134.903 82.467C135.239 82.264 135.501 81.977 135.69 81.606C135.879 81.235 135.974 80.8045 135.974 80.3145C135.974 79.8245 135.879 79.3975 135.69 79.0335C135.501 78.6625 135.239 78.379 134.903 78.183C134.567 77.987 134.178 77.889 133.737 77.889C133.296 77.889 132.904 77.987 132.561 78.183C132.225 78.379 131.963 78.6625 131.774 79.0335C131.585 79.3975 131.49 79.8245 131.49 80.3145C131.49 80.8045 131.585 81.235 131.774 81.606C131.963 81.977 132.225 82.264 132.561 82.467C132.904 82.663 133.296 82.761 133.737 82.761ZM143.682 78.876C143.514 78.568 143.283 78.3335 142.989 78.1725C142.695 78.0115 142.352 77.931 141.96 77.931C141.526 77.931 141.141 78.029 140.805 78.225C140.469 78.421 140.207 78.701 140.018 79.065C139.829 79.429 139.734 79.849 139.734 80.325C139.734 80.815 139.829 81.242 140.018 81.606C140.214 81.97 140.483 82.25 140.826 82.446C141.169 82.642 141.568 82.74 142.023 82.74C142.583 82.74 143.042 82.593 143.399 82.299C143.756 81.998 143.99 81.5815 144.102 81.0495H141.582V79.926H145.551V81.207C145.453 81.718 145.243 82.1905 144.921 82.6245C144.599 83.0585 144.183 83.4085 143.672 83.6745C143.168 83.9335 142.601 84.063 141.971 84.063C141.264 84.063 140.623 83.9055 140.049 83.5905C139.482 83.2685 139.034 82.824 138.705 82.257C138.383 81.69 138.222 81.046 138.222 80.325C138.222 79.604 138.383 78.96 138.705 78.393C139.034 77.819 139.482 77.3745 140.049 77.0595C140.623 76.7375 141.26 76.5765 141.96 76.5765C142.786 76.5765 143.504 76.7795 144.113 77.1855C144.722 77.5845 145.142 78.148 145.373 78.876H143.682ZM148.109 76.671V84H146.639V76.671H148.109ZM151.031 77.8575V79.695H153.499V80.8605H151.031V82.803H153.814V84H149.561V76.6605H153.814V77.8575H151.031ZM157.68 84.0735C157.169 84.0735 156.707 83.986 156.294 83.811C155.888 83.636 155.566 83.384 155.328 83.055C155.09 82.726 154.968 82.3375 154.961 81.8895H156.536C156.557 82.1905 156.662 82.4285 156.851 82.6035C157.047 82.7785 157.313 82.866 157.649 82.866C157.992 82.866 158.261 82.7855 158.457 82.6245C158.653 82.4565 158.751 82.2395 158.751 81.9735C158.751 81.7565 158.685 81.578 158.552 81.438C158.419 81.298 158.251 81.1895 158.048 81.1125C157.852 81.0285 157.579 80.9375 157.229 80.8395C156.753 80.6995 156.364 80.563 156.063 80.43C155.769 80.29 155.514 80.0835 155.297 79.8105C155.087 79.5305 154.982 79.1595 154.982 78.6975C154.982 78.2635 155.09 77.8855 155.307 77.5635C155.524 77.2415 155.829 76.9965 156.221 76.8285C156.613 76.6535 157.061 76.566 157.565 76.566C158.321 76.566 158.933 76.7515 159.402 77.1225C159.878 77.4865 160.141 77.9975 160.19 78.6555H158.573C158.559 78.4035 158.45 78.197 158.247 78.036C158.051 77.868 157.789 77.784 157.46 77.784C157.173 77.784 156.942 77.8575 156.767 78.0045C156.599 78.1515 156.515 78.365 156.515 78.645C156.515 78.841 156.578 79.0055 156.704 79.1385C156.837 79.2645 156.998 79.3695 157.187 79.4535C157.383 79.5305 157.656 79.6215 158.006 79.7265C158.482 79.8665 158.87 80.0065 159.171 80.1465C159.472 80.2865 159.731 80.4965 159.948 80.7765C160.165 81.0565 160.274 81.424 160.274 81.879C160.274 82.271 160.172 82.635 159.969 82.971C159.766 83.307 159.469 83.5765 159.077 83.7795C158.685 83.9755 158.219 84.0735 157.68 84.0735ZM169.038 76.671V77.8575H167.085V84H165.615V77.8575H163.662V76.671H169.038ZM173.89 84L172.273 81.144H171.58V84H170.11V76.671H172.861C173.428 76.671 173.911 76.7725 174.31 76.9755C174.709 77.1715 175.007 77.441 175.203 77.784C175.406 78.12 175.507 78.498 175.507 78.918C175.507 79.401 175.367 79.8385 175.087 80.2305C174.807 80.6155 174.391 80.8815 173.838 81.0285L175.591 84H173.89ZM171.58 80.0415H172.809C173.208 80.0415 173.505 79.947 173.701 79.758C173.897 79.562 173.995 79.2925 173.995 78.9495C173.995 78.6135 173.897 78.3545 173.701 78.1725C173.505 77.9835 173.208 77.889 172.809 77.889H171.58V80.0415ZM181.331 82.6035H178.412L177.929 84H176.385L179.021 76.6605H180.732L183.368 84H181.814L181.331 82.6035ZM180.932 81.4275L179.871 78.3615L178.811 81.4275H180.932ZM185.823 76.671V84H184.353V76.671H185.823ZM193.544 84H192.074L188.745 78.9705V84H187.275V76.6605H188.745L192.074 81.7005V76.6605H193.544V84ZM196.466 76.671V84H194.996V76.671H196.466ZM204.187 84H202.717L199.389 78.9705V84H197.919V76.6605H199.389L202.717 81.7005V76.6605H204.187V84ZM210.743 78.876C210.575 78.568 210.344 78.3335 210.05 78.1725C209.756 78.0115 209.413 77.931 209.021 77.931C208.587 77.931 208.202 78.029 207.866 78.225C207.53 78.421 207.268 78.701 207.079 79.065C206.89 79.429 206.795 79.849 206.795 80.325C206.795 80.815 206.89 81.242 207.079 81.606C207.275 81.97 207.544 82.25 207.887 82.446C208.23 82.642 208.629 82.74 209.084 82.74C209.644 82.74 210.103 82.593 210.46 82.299C210.817 81.998 211.051 81.5815 211.163 81.0495H208.643V79.926H212.612V81.207C212.514 81.718 212.304 82.1905 211.982 82.6245C211.66 83.0585 211.244 83.4085 210.733 83.6745C210.229 83.9335 209.662 84.063 209.032 84.063C208.325 84.063 207.684 83.9055 207.11 83.5905C206.543 83.2685 206.095 82.824 205.766 82.257C205.444 81.69 205.283 81.046 205.283 80.325C205.283 79.604 205.444 78.96 205.766 78.393C206.095 77.819 206.543 77.3745 207.11 77.0595C207.684 76.7375 208.321 76.5765 209.021 76.5765C209.847 76.5765 210.565 76.7795 211.174 77.1855C211.783 77.5845 212.203 78.148 212.434 78.876H210.743ZM220.696 82.6035H217.777L217.294 84H215.75L218.386 76.6605H220.097L222.733 84H221.179L220.696 82.6035ZM220.297 81.4275L219.236 78.3615L218.176 81.4275H220.297ZM223.361 80.325C223.361 79.604 223.522 78.96 223.844 78.393C224.173 77.819 224.617 77.3745 225.177 77.0595C225.744 76.7375 226.378 76.5765 227.078 76.5765C227.897 76.5765 228.614 76.7865 229.23 77.2065C229.846 77.6265 230.277 78.2075 230.522 78.9495H228.831C228.663 78.5995 228.425 78.337 228.117 78.162C227.816 77.987 227.466 77.8995 227.067 77.8995C226.64 77.8995 226.259 78.001 225.923 78.204C225.594 78.4 225.335 78.68 225.146 79.044C224.964 79.408 224.873 79.835 224.873 80.325C224.873 80.808 224.964 81.235 225.146 81.606C225.335 81.97 225.594 82.2535 225.923 82.4565C226.259 82.6525 226.64 82.7505 227.067 82.7505C227.466 82.7505 227.816 82.663 228.117 82.488C228.425 82.306 228.663 82.04 228.831 81.69H230.522C230.277 82.439 229.846 83.0235 229.23 83.4435C228.621 83.8565 227.904 84.063 227.078 84.063C226.378 84.063 225.744 83.9055 225.177 83.5905C224.617 83.2685 224.173 82.824 223.844 82.257C223.522 81.69 223.361 81.046 223.361 80.325ZM236.271 82.6035H233.352L232.869 84H231.326L233.961 76.6605H235.673L238.308 84H236.754L236.271 82.6035ZM235.872 81.4275L234.812 78.3615L233.751 81.4275H235.872ZM241.855 76.671C242.625 76.671 243.301 76.8215 243.882 77.1225C244.47 77.4235 244.921 77.854 245.236 78.414C245.558 78.967 245.719 79.611 245.719 80.346C245.719 81.081 245.558 81.725 245.236 82.278C244.921 82.824 244.47 83.2475 243.882 83.5485C243.301 83.8495 242.625 84 241.855 84H239.293V76.671H241.855ZM241.803 82.7505C242.573 82.7505 243.168 82.5405 243.588 82.1205C244.008 81.7005 244.218 81.109 244.218 80.346C244.218 79.583 244.008 78.988 243.588 78.561C243.168 78.127 242.573 77.91 241.803 77.91H240.763V82.7505H241.803ZM248.29 77.8575V79.695H250.757V80.8605H248.29V82.803H251.072V84H246.82V76.6605H251.072V77.8575H248.29ZM260.399 76.671V84H258.929V79.233L256.965 84H255.852L253.878 79.233V84H252.408V76.671H254.078L256.409 82.1205L258.74 76.671H260.399ZM267.679 76.671L265.201 81.4485V84H263.731V81.4485L261.243 76.671H262.902L264.477 80.0205L266.041 76.671H267.679Z" fill="black"/>
</svg>
