<svg width="196" height="59" viewBox="0 0 196 59" fill="none" xmlns="http://www.w3.org/2000/svg">
<rect width="196" height="59" fill="#E5E5E5"/>
<rect width="196" height="59" fill="white"/>
<path d="M58.52 44.48C54.72 44.48 51.76 43.52 49.64 41.6C47.52 39.64 46.46 36.74 46.46 32.9V4.58H55.82V32.78C55.82 34.14 56.18 35.2 56.9 35.96C57.62 36.68 58.6 37.04 59.84 37.04C61.32 37.04 62.58 36.64 63.62 35.84L66.14 42.44C65.18 43.12 64.02 43.64 62.66 44C61.34 44.32 59.96 44.48 58.52 44.48ZM41.48 19.64V12.44H63.86V19.64H41.48ZM82.7942 44.48C78.9942 44.48 76.0342 43.52 73.9142 41.6C71.7942 39.64 70.7342 36.74 70.7342 32.9V4.58H80.0942V32.78C80.0942 34.14 80.4542 35.2 81.1742 35.96C81.8942 36.68 82.8742 37.04 84.1142 37.04C85.5942 37.04 86.8542 36.64 87.8942 35.84L90.4142 42.44C89.4542 43.12 88.2942 43.64 86.9342 44C85.6142 44.32 84.2342 44.48 82.7942 44.48ZM65.7542 19.64V12.44H88.1342V19.64H65.7542ZM107.565 44.48C103.765 44.48 100.805 43.52 98.6853 41.6C96.5653 39.64 95.5053 36.74 95.5053 32.9V4.58H104.865V32.78C104.865 34.14 105.225 35.2 105.945 35.96C106.665 36.68 107.645 37.04 108.885 37.04C110.365 37.04 111.625 36.64 112.665 35.84L115.185 42.44C114.225 43.12 113.065 43.64 111.705 44C110.385 44.32 109.005 44.48 107.565 44.48ZM90.5253 19.64V12.44H112.905V19.64H90.5253ZM152.6 11.72V44H143.66V40.28C141.34 43.08 137.98 44.48 133.58 44.48C130.54 44.48 127.78 43.8 125.3 42.44C122.86 41.08 120.94 39.14 119.54 36.62C118.14 34.1 117.44 31.18 117.44 27.86C117.44 24.54 118.14 21.62 119.54 19.1C120.94 16.58 122.86 14.64 125.3 13.28C127.78 11.92 130.54 11.24 133.58 11.24C137.7 11.24 140.92 12.54 143.24 15.14V11.72H152.6ZM135.2 36.8C137.56 36.8 139.52 36 141.08 34.4C142.64 32.76 143.42 30.58 143.42 27.86C143.42 25.14 142.64 22.98 141.08 21.38C139.52 19.74 137.56 18.92 135.2 18.92C132.8 18.92 130.82 19.74 129.26 21.38C127.7 22.98 126.92 25.14 126.92 27.86C126.92 30.58 127.7 32.76 129.26 34.4C130.82 36 132.8 36.8 135.2 36.8Z" fill="black"/>
<rect x="41" y="4" width="26" height="19" fill="white"/>
<rect x="46" y="12" width="68" height="8" fill="#3254FE"/>
<path d="M161.568 20.792L182.88 28.6L161.568 36.344V44.344L192.032 32.76V24.44L161.568 12.856V20.792Z" fill="black"/>
<path d="M37.432 19.792L16.12 27.6L37.432 35.344V43.344L6.968 31.76V23.44L37.432 11.856V19.792Z" fill="black"/>
<path d="M11.463 50.114V55H10.483V50.114H11.463ZM16.6102 55H15.6302L13.4112 51.647V55H12.4312V50.107H13.4112L15.6302 53.467V50.107H16.6102V55ZM20.5957 50.114V50.905H18.5587V52.158H20.1197V52.935H18.5587V55H17.5787V50.114H20.5957ZM23.5586 55.049C23.1013 55.049 22.6813 54.9417 22.2986 54.727C21.916 54.5123 21.6126 54.216 21.3886 53.838C21.1646 53.4553 21.0526 53.0237 21.0526 52.543C21.0526 52.067 21.1646 51.64 21.3886 51.262C21.6126 50.8793 21.916 50.5807 22.2986 50.366C22.6813 50.1513 23.1013 50.044 23.5586 50.044C24.0206 50.044 24.4406 50.1513 24.8186 50.366C25.2013 50.5807 25.5023 50.8793 25.7216 51.262C25.9456 51.64 26.0576 52.067 26.0576 52.543C26.0576 53.0237 25.9456 53.4553 25.7216 53.838C25.5023 54.216 25.2013 54.5123 24.8186 54.727C24.436 54.9417 24.016 55.049 23.5586 55.049ZM23.5586 54.174C23.8526 54.174 24.1116 54.1087 24.3356 53.978C24.5596 53.8427 24.7346 53.6513 24.8606 53.404C24.9866 53.1567 25.0496 52.8697 25.0496 52.543C25.0496 52.2163 24.9866 51.9317 24.8606 51.689C24.7346 51.4417 24.5596 51.2527 24.3356 51.122C24.1116 50.9913 23.8526 50.926 23.5586 50.926C23.2646 50.926 23.0033 50.9913 22.7746 51.122C22.5506 51.2527 22.3756 51.4417 22.2496 51.689C22.1236 51.9317 22.0606 52.2163 22.0606 52.543C22.0606 52.8697 22.1236 53.1567 22.2496 53.404C22.3756 53.6513 22.5506 53.8427 22.7746 53.978C23.0033 54.1087 23.2646 54.174 23.5586 54.174ZM29.3067 55L28.2287 53.096H27.7667V55H26.7867V50.114H28.6207C28.9987 50.114 29.3207 50.1817 29.5867 50.317C29.8527 50.4477 30.051 50.6273 30.1817 50.856C30.317 51.08 30.3847 51.332 30.3847 51.612C30.3847 51.934 30.2914 52.2257 30.1047 52.487C29.918 52.7437 29.6404 52.921 29.2717 53.019L30.4407 55H29.3067ZM27.7667 52.361H28.5857C28.8517 52.361 29.05 52.298 29.1807 52.172C29.3114 52.0413 29.3767 51.8617 29.3767 51.633C29.3767 51.409 29.3114 51.2363 29.1807 51.115C29.05 50.989 28.8517 50.926 28.5857 50.926H27.7667V52.361ZM36.5981 50.114V55H35.6181V51.822L34.3091 55H33.5671L32.2511 51.822V55H31.2711V50.114H32.3841L33.9381 53.747L35.4921 50.114H36.5981ZM40.563 54.069H38.617L38.295 55H37.266L39.023 50.107H40.164L41.921 55H40.885L40.563 54.069ZM40.297 53.285L39.59 51.241L38.883 53.285H40.297ZM45.9027 50.114V50.905H44.6007V55H43.6207V50.905H42.3187V50.114H45.9027ZM47.5978 50.114V55H46.6178V50.114H47.5978ZM50.834 55.049C50.3767 55.049 49.9567 54.9417 49.574 54.727C49.1913 54.5123 48.888 54.216 48.664 53.838C48.44 53.4553 48.328 53.0237 48.328 52.543C48.328 52.067 48.44 51.64 48.664 51.262C48.888 50.8793 49.1913 50.5807 49.574 50.366C49.9567 50.1513 50.3767 50.044 50.834 50.044C51.296 50.044 51.716 50.1513 52.094 50.366C52.4767 50.5807 52.7777 50.8793 52.997 51.262C53.221 51.64 53.333 52.067 53.333 52.543C53.333 53.0237 53.221 53.4553 52.997 53.838C52.7777 54.216 52.4767 54.5123 52.094 54.727C51.7113 54.9417 51.2913 55.049 50.834 55.049ZM50.834 54.174C51.128 54.174 51.387 54.1087 51.611 53.978C51.835 53.8427 52.01 53.6513 52.136 53.404C52.262 53.1567 52.325 52.8697 52.325 52.543C52.325 52.2163 52.262 51.9317 52.136 51.689C52.01 51.4417 51.835 51.2527 51.611 51.122C51.387 50.9913 51.128 50.926 50.834 50.926C50.54 50.926 50.2787 50.9913 50.05 51.122C49.826 51.2527 49.651 51.4417 49.525 51.689C49.399 51.9317 49.336 52.2163 49.336 52.543C49.336 52.8697 49.399 53.1567 49.525 53.404C49.651 53.6513 49.826 53.8427 50.05 53.978C50.2787 54.1087 50.54 54.174 50.834 54.174ZM58.2411 55H57.2611L55.0421 51.647V55H54.0621V50.107H55.0421L57.2611 53.467V50.107H58.2411V55ZM64.2025 50.114V50.905H62.9005V55H61.9205V50.905H60.6185V50.114H64.2025ZM65.8976 50.905V52.13H67.5426V52.907H65.8976V54.202H67.7526V55H64.9176V50.107H67.7526V50.905H65.8976ZM68.4052 52.55C68.4052 52.0693 68.5125 51.64 68.7272 51.262C68.9465 50.8793 69.2428 50.583 69.6162 50.373C69.9942 50.1583 70.4165 50.051 70.8832 50.051C71.4292 50.051 71.9075 50.191 72.3182 50.471C72.7288 50.751 73.0158 51.1383 73.1792 51.633H72.0522C71.9402 51.3997 71.7815 51.2247 71.5762 51.108C71.3755 50.9913 71.1422 50.933 70.8762 50.933C70.5915 50.933 70.3372 51.0007 70.1132 51.136C69.8938 51.2667 69.7212 51.4533 69.5952 51.696C69.4738 51.9387 69.4132 52.2233 69.4132 52.55C69.4132 52.872 69.4738 53.1567 69.5952 53.404C69.7212 53.6467 69.8938 53.8357 70.1132 53.971C70.3372 54.1017 70.5915 54.167 70.8762 54.167C71.1422 54.167 71.3755 54.1087 71.5762 53.992C71.7815 53.8707 71.9402 53.6933 72.0522 53.46H73.1792C73.0158 53.9593 72.7288 54.349 72.3182 54.629C71.9122 54.9043 71.4338 55.042 70.8832 55.042C70.4165 55.042 69.9942 54.937 69.6162 54.727C69.2428 54.5123 68.9465 54.216 68.7272 53.838C68.5125 53.46 68.4052 53.0307 68.4052 52.55ZM78.0692 50.114V55H77.0892V52.921H74.9962V55H74.0162V50.114H74.9962V52.123H77.0892V50.114H78.0692ZM83.2128 55H82.2328L80.0138 51.647V55H79.0338V50.107H80.0138L82.2328 53.467V50.107H83.2128V55ZM86.4492 55.049C85.9919 55.049 85.5719 54.9417 85.1892 54.727C84.8066 54.5123 84.5032 54.216 84.2792 53.838C84.0552 53.4553 83.9432 53.0237 83.9432 52.543C83.9432 52.067 84.0552 51.64 84.2792 51.262C84.5032 50.8793 84.8066 50.5807 85.1892 50.366C85.5719 50.1513 85.9919 50.044 86.4492 50.044C86.9112 50.044 87.3312 50.1513 87.7092 50.366C88.0919 50.5807 88.3929 50.8793 88.6122 51.262C88.8362 51.64 88.9482 52.067 88.9482 52.543C88.9482 53.0237 88.8362 53.4553 88.6122 53.838C88.3929 54.216 88.0919 54.5123 87.7092 54.727C87.3266 54.9417 86.9066 55.049 86.4492 55.049ZM86.4492 54.174C86.7432 54.174 87.0022 54.1087 87.2262 53.978C87.4502 53.8427 87.6252 53.6513 87.7512 53.404C87.8772 53.1567 87.9402 52.8697 87.9402 52.543C87.9402 52.2163 87.8772 51.9317 87.7512 51.689C87.6252 51.4417 87.4502 51.2527 87.2262 51.122C87.0022 50.9913 86.7432 50.926 86.4492 50.926C86.1552 50.926 85.8939 50.9913 85.6652 51.122C85.4412 51.2527 85.2662 51.4417 85.1402 51.689C85.0142 51.9317 84.9512 52.2163 84.9512 52.543C84.9512 52.8697 85.0142 53.1567 85.1402 53.404C85.2662 53.6513 85.4412 53.8427 85.6652 53.978C85.8939 54.1087 86.1552 54.174 86.4492 54.174ZM90.6573 54.223H92.2673V55H89.6773V50.114H90.6573V54.223ZM95.1582 55.049C94.7009 55.049 94.2809 54.9417 93.8982 54.727C93.5156 54.5123 93.2122 54.216 92.9882 53.838C92.7642 53.4553 92.6522 53.0237 92.6522 52.543C92.6522 52.067 92.7642 51.64 92.9882 51.262C93.2122 50.8793 93.5156 50.5807 93.8982 50.366C94.2809 50.1513 94.7009 50.044 95.1582 50.044C95.6202 50.044 96.0402 50.1513 96.4182 50.366C96.8009 50.5807 97.1019 50.8793 97.3212 51.262C97.5452 51.64 97.6572 52.067 97.6572 52.543C97.6572 53.0237 97.5452 53.4553 97.3212 53.838C97.1019 54.216 96.8009 54.5123 96.4182 54.727C96.0356 54.9417 95.6156 55.049 95.1582 55.049ZM95.1582 54.174C95.4522 54.174 95.7112 54.1087 95.9352 53.978C96.1592 53.8427 96.3342 53.6513 96.4602 53.404C96.5862 53.1567 96.6492 52.8697 96.6492 52.543C96.6492 52.2163 96.5862 51.9317 96.4602 51.689C96.3342 51.4417 96.1592 51.2527 95.9352 51.122C95.7112 50.9913 95.4522 50.926 95.1582 50.926C94.8642 50.926 94.6029 50.9913 94.3742 51.122C94.1502 51.2527 93.9752 51.4417 93.8492 51.689C93.7232 51.9317 93.6602 52.2163 93.6602 52.543C93.6602 52.8697 93.7232 53.1567 93.8492 53.404C93.9752 53.6513 94.1502 53.8427 94.3742 53.978C94.6029 54.1087 94.8642 54.174 95.1582 54.174ZM101.788 51.584C101.676 51.3787 101.522 51.2223 101.326 51.115C101.13 51.0077 100.902 50.954 100.64 50.954C100.351 50.954 100.094 51.0193 99.8703 51.15C99.6463 51.2807 99.4713 51.4673 99.3453 51.71C99.2193 51.9527 99.1563 52.2327 99.1563 52.55C99.1563 52.8767 99.2193 53.1613 99.3453 53.404C99.476 53.6467 99.6557 53.8333 99.8843 53.964C100.113 54.0947 100.379 54.16 100.682 54.16C101.056 54.16 101.361 54.062 101.599 53.866C101.837 53.6653 101.994 53.3877 102.068 53.033H100.388V52.284H103.034V53.138C102.969 53.4787 102.829 53.7937 102.614 54.083C102.4 54.3723 102.122 54.6057 101.781 54.783C101.445 54.9557 101.067 55.042 100.647 55.042C100.176 55.042 99.749 54.937 99.3663 54.727C98.9883 54.5123 98.6897 54.216 98.4703 53.838C98.2557 53.46 98.1483 53.0307 98.1483 52.55C98.1483 52.0693 98.2557 51.64 98.4703 51.262C98.6897 50.8793 98.9883 50.583 99.3663 50.373C99.749 50.1583 100.174 50.051 100.64 50.051C101.191 50.051 101.669 50.1863 102.075 50.457C102.481 50.723 102.761 51.0987 102.915 51.584H101.788ZM104.739 50.114V55H103.759V50.114H104.739ZM106.688 50.905V52.13H108.333V52.907H106.688V54.202H108.543V55H105.708V50.107H108.543V50.905H106.688ZM111.12 55.049C110.78 55.049 110.472 54.9907 110.196 54.874C109.926 54.7573 109.711 54.5893 109.552 54.37C109.394 54.1507 109.312 53.8917 109.307 53.593H110.357C110.371 53.7937 110.441 53.9523 110.567 54.069C110.698 54.1857 110.875 54.244 111.099 54.244C111.328 54.244 111.508 54.1903 111.638 54.083C111.769 53.971 111.834 53.8263 111.834 53.649C111.834 53.5043 111.79 53.3853 111.701 53.292C111.613 53.1987 111.501 53.1263 111.365 53.075C111.235 53.019 111.053 52.9583 110.819 52.893C110.502 52.7997 110.243 52.7087 110.042 52.62C109.846 52.5267 109.676 52.389 109.531 52.207C109.391 52.0203 109.321 51.773 109.321 51.465C109.321 51.1757 109.394 50.9237 109.538 50.709C109.683 50.4943 109.886 50.331 110.147 50.219C110.409 50.1023 110.707 50.044 111.043 50.044C111.547 50.044 111.956 50.1677 112.268 50.415C112.586 50.6577 112.761 50.9983 112.793 51.437H111.715C111.706 51.269 111.634 51.1313 111.498 51.024C111.368 50.912 111.193 50.856 110.973 50.856C110.782 50.856 110.628 50.905 110.511 51.003C110.399 51.101 110.343 51.2433 110.343 51.43C110.343 51.5607 110.385 51.6703 110.469 51.759C110.558 51.843 110.665 51.913 110.791 51.969C110.922 52.0203 111.104 52.081 111.337 52.151C111.655 52.2443 111.914 52.3377 112.114 52.431C112.315 52.5243 112.488 52.6643 112.632 52.851C112.777 53.0377 112.849 53.2827 112.849 53.586C112.849 53.8473 112.782 54.09 112.646 54.314C112.511 54.538 112.313 54.7177 112.051 54.853C111.79 54.9837 111.48 55.049 111.12 55.049ZM118.692 50.114V50.905H117.39V55H116.41V50.905H115.108V50.114H118.692ZM121.927 55L120.849 53.096H120.387V55H119.407V50.114H121.241C121.619 50.114 121.941 50.1817 122.207 50.317C122.473 50.4477 122.671 50.6273 122.802 50.856C122.937 51.08 123.005 51.332 123.005 51.612C123.005 51.934 122.911 52.2257 122.725 52.487C122.538 52.7437 122.26 52.921 121.892 53.019L123.061 55H121.927ZM120.387 52.361H121.206C121.472 52.361 121.67 52.298 121.801 52.172C121.931 52.0413 121.997 51.8617 121.997 51.633C121.997 51.409 121.931 51.2363 121.801 51.115C121.67 50.989 121.472 50.926 121.206 50.926H120.387V52.361ZM126.887 54.069H124.941L124.619 55H123.59L125.347 50.107H126.488L128.245 55H127.209L126.887 54.069ZM126.621 53.285L125.914 51.241L125.207 53.285H126.621ZM129.882 50.114V55H128.902V50.114H129.882ZM135.029 55H134.049L131.83 51.647V55H130.85V50.107H131.83L134.049 53.467V50.107H135.029V55ZM136.978 50.114V55H135.998V50.114H136.978ZM142.125 55H141.145L138.926 51.647V55H137.946V50.107H138.926L141.145 53.467V50.107H142.125V55ZM146.495 51.584C146.383 51.3787 146.229 51.2223 146.033 51.115C145.837 51.0077 145.609 50.954 145.347 50.954C145.058 50.954 144.801 51.0193 144.577 51.15C144.353 51.2807 144.178 51.4673 144.052 51.71C143.926 51.9527 143.863 52.2327 143.863 52.55C143.863 52.8767 143.926 53.1613 144.052 53.404C144.183 53.6467 144.363 53.8333 144.591 53.964C144.82 54.0947 145.086 54.16 145.389 54.16C145.763 54.16 146.068 54.062 146.306 53.866C146.544 53.6653 146.701 53.3877 146.775 53.033H145.095V52.284H147.741V53.138C147.676 53.4787 147.536 53.7937 147.321 54.083C147.107 54.3723 146.829 54.6057 146.488 54.783C146.152 54.9557 145.774 55.042 145.354 55.042C144.883 55.042 144.456 54.937 144.073 54.727C143.695 54.5123 143.397 54.216 143.177 53.838C142.963 53.46 142.855 53.0307 142.855 52.55C142.855 52.0693 142.963 51.64 143.177 51.262C143.397 50.8793 143.695 50.583 144.073 50.373C144.456 50.1583 144.881 50.051 145.347 50.051C145.898 50.051 146.376 50.1863 146.782 50.457C147.188 50.723 147.468 51.0987 147.622 51.584H146.495ZM153.13 54.069H151.184L150.862 55H149.833L151.59 50.107H152.731L154.488 55H153.452L153.13 54.069ZM152.864 53.285L152.157 51.241L151.45 53.285H152.864ZM154.907 52.55C154.907 52.0693 155.014 51.64 155.229 51.262C155.448 50.8793 155.745 50.583 156.118 50.373C156.496 50.1583 156.918 50.051 157.385 50.051C157.931 50.051 158.409 50.191 158.82 50.471C159.231 50.751 159.518 51.1383 159.681 51.633H158.554C158.442 51.3997 158.283 51.2247 158.078 51.108C157.877 50.9913 157.644 50.933 157.378 50.933C157.093 50.933 156.839 51.0007 156.615 51.136C156.396 51.2667 156.223 51.4533 156.097 51.696C155.976 51.9387 155.915 52.2233 155.915 52.55C155.915 52.872 155.976 53.1567 156.097 53.404C156.223 53.6467 156.396 53.8357 156.615 53.971C156.839 54.1017 157.093 54.167 157.378 54.167C157.644 54.167 157.877 54.1087 158.078 53.992C158.283 53.8707 158.442 53.6933 158.554 53.46H159.681C159.518 53.9593 159.231 54.349 158.82 54.629C158.414 54.9043 157.936 55.042 157.385 55.042C156.918 55.042 156.496 54.937 156.118 54.727C155.745 54.5123 155.448 54.216 155.229 53.838C155.014 53.46 154.907 53.0307 154.907 52.55ZM163.514 54.069H161.568L161.246 55H160.217L161.974 50.107H163.115L164.872 55H163.836L163.514 54.069ZM163.248 53.285L162.541 51.241L161.834 53.285H163.248ZM167.237 50.114C167.75 50.114 168.201 50.2143 168.588 50.415C168.98 50.6157 169.281 50.9027 169.491 51.276C169.706 51.6447 169.813 52.074 169.813 52.564C169.813 53.054 169.706 53.4833 169.491 53.852C169.281 54.216 168.98 54.4983 168.588 54.699C168.201 54.8997 167.75 55 167.237 55H165.529V50.114H167.237ZM167.202 54.167C167.715 54.167 168.112 54.027 168.392 53.747C168.672 53.467 168.812 53.0727 168.812 52.564C168.812 52.0553 168.672 51.6587 168.392 51.374C168.112 51.0847 167.715 50.94 167.202 50.94H166.509V54.167H167.202ZM171.526 50.905V52.13H173.171V52.907H171.526V54.202H173.381V55H170.546V50.107H173.381V50.905H171.526ZM179.599 50.114V55H178.619V51.822L177.31 55H176.568L175.252 51.822V55H174.272V50.114H175.385L176.939 53.747L178.493 50.114H179.599ZM184.453 50.114L182.801 53.299V55H181.821V53.299L180.162 50.114H181.268L182.318 52.347L183.361 50.114H184.453Z" fill="black"/>
</svg>
