<svg width="196" height="50" viewBox="0 0 196 50" fill="none" xmlns="http://www.w3.org/2000/svg">
<rect width="196" height="50" fill="#E5E5E5"/>
<rect width="196" height="50" fill="#E0F2FE"/>
<path d="M58.52 44.48C54.72 44.48 51.76 43.52 49.64 41.6C47.52 39.64 46.46 36.74 46.46 32.9V4.58H55.82V32.78C55.82 34.14 56.18 35.2 56.9 35.96C57.62 36.68 58.6 37.04 59.84 37.04C61.32 37.04 62.58 36.64 63.62 35.84L66.14 42.44C65.18 43.12 64.02 43.64 62.66 44C61.34 44.32 59.96 44.48 58.52 44.48ZM41.48 19.64V12.44H63.86V19.64H41.48ZM82.7942 44.48C78.9942 44.48 76.0342 43.52 73.9142 41.6C71.7942 39.64 70.7342 36.74 70.7342 32.9V4.58H80.0942V32.78C80.0942 34.14 80.4542 35.2 81.1742 35.96C81.8942 36.68 82.8742 37.04 84.1142 37.04C85.5942 37.04 86.8542 36.64 87.8942 35.84L90.4142 42.44C89.4542 43.12 88.2942 43.64 86.9342 44C85.6142 44.32 84.2342 44.48 82.7942 44.48ZM65.7542 19.64V12.44H88.1342V19.64H65.7542ZM107.565 44.48C103.765 44.48 100.805 43.52 98.6853 41.6C96.5653 39.64 95.5053 36.74 95.5053 32.9V4.58H104.865V32.78C104.865 34.14 105.225 35.2 105.945 35.96C106.665 36.68 107.645 37.04 108.885 37.04C110.365 37.04 111.625 36.64 112.665 35.84L115.185 42.44C114.225 43.12 113.065 43.64 111.705 44C110.385 44.32 109.005 44.48 107.565 44.48ZM90.5253 19.64V12.44H112.905V19.64H90.5253ZM152.6 11.72V44H143.66V40.28C141.34 43.08 137.98 44.48 133.58 44.48C130.54 44.48 127.78 43.8 125.3 42.44C122.86 41.08 120.94 39.14 119.54 36.62C118.14 34.1 117.44 31.18 117.44 27.86C117.44 24.54 118.14 21.62 119.54 19.1C120.94 16.58 122.86 14.64 125.3 13.28C127.78 11.92 130.54 11.24 133.58 11.24C137.7 11.24 140.92 12.54 143.24 15.14V11.72H152.6ZM135.2 36.8C137.56 36.8 139.52 36 141.08 34.4C142.64 32.76 143.42 30.58 143.42 27.86C143.42 25.14 142.64 22.98 141.08 21.38C139.52 19.74 137.56 18.92 135.2 18.92C132.8 18.92 130.82 19.74 129.26 21.38C127.7 22.98 126.92 25.14 126.92 27.86C126.92 30.58 127.7 32.76 129.26 34.4C130.82 36 132.8 36.8 135.2 36.8Z" fill="black"/>
<rect x="41" y="4" width="26" height="19" fill="#E0F2FE"/>
<rect x="46" y="12" width="68" height="8" fill="#3254FE"/>
<path d="M161.568 20.792L182.88 28.6L161.568 36.344V44.344L192.032 32.76V24.44L161.568 12.856V20.792Z" fill="black"/>
<path d="M37.432 19.792L16.12 27.6L37.432 35.344V43.344L6.968 31.76V23.44L37.432 11.856V19.792Z" fill="black"/>
</svg>
