<svg width="270" height="74" viewBox="0 0 270 74" fill="none" xmlns="http://www.w3.org/2000/svg">
<rect width="270" height="74" fill="#E5E5E5"/>
<rect width="270" height="74" fill="#E0F2FE"/>
<rect x="105" y="20" width="45" height="39" fill="#E0F2FE"/>
<path d="M75.032 67.768C68.952 67.768 64.216 66.232 60.824 63.16C57.432 60.024 55.736 55.384 55.736 49.24V3.928H70.712V49.048C70.712 51.224 71.288 52.92 72.44 54.136C73.592 55.288 75.16 55.864 77.144 55.864C79.512 55.864 81.528 55.224 83.192 53.944L87.224 64.504C85.688 65.592 83.832 66.424 81.656 67C79.544 67.512 77.336 67.768 75.032 67.768ZM47.768 28.024V16.504H83.576V28.024H47.768ZM113.871 67.768C107.791 67.768 103.055 66.232 99.6627 63.16C96.2707 60.024 94.5747 55.384 94.5747 49.24V3.928H109.551V49.048C109.551 51.224 110.127 52.92 111.279 54.136C112.431 55.288 113.999 55.864 115.983 55.864C118.351 55.864 120.367 55.224 122.031 53.944L126.063 64.504C124.527 65.592 122.671 66.424 120.495 67C118.383 67.512 116.175 67.768 113.871 67.768ZM86.6067 28.024V16.504H122.415V28.024H86.6067ZM154.63 67.768C148.55 67.768 143.814 66.232 140.422 63.16C137.03 60.024 135.334 55.384 135.334 49.24V3.928H150.31V49.048C150.31 51.224 150.886 52.92 152.038 54.136C153.19 55.288 154.758 55.864 156.742 55.864C159.11 55.864 161.126 55.224 162.79 53.944L166.822 64.504C165.286 65.592 163.43 66.424 161.254 67C159.142 67.512 156.934 67.768 154.63 67.768ZM127.366 28.024V16.504H163.174V28.024H127.366ZM214.252 28.264V67H203.524V62.536C200.74 65.896 196.708 67.576 191.428 67.576C187.78 67.576 184.468 66.76 181.492 65.128C178.564 63.496 176.26 61.168 174.58 58.144C172.9 55.12 172.06 51.616 172.06 47.632C172.06 43.648 172.9 40.144 174.58 37.12C176.26 34.096 178.564 31.768 181.492 30.136C184.468 28.504 187.78 27.688 191.428 27.688C196.372 27.688 200.236 29.248 203.02 32.368V28.264H214.252ZM193.372 58.36C196.204 58.36 198.556 57.4 200.428 55.48C202.3 53.512 203.236 50.896 203.236 47.632C203.236 44.368 202.3 41.776 200.428 39.856C198.556 37.888 196.204 36.904 193.372 36.904C190.492 36.904 188.116 37.888 186.244 39.856C184.372 41.776 183.436 44.368 183.436 47.632C183.436 50.896 184.372 53.512 186.244 55.48C188.116 57.4 190.492 58.36 193.372 58.36Z" fill="black"/>
<rect x="55" y="3" width="16" height="25" fill="#62EB08"/>
<rect x="40" width="44" height="31" fill="#E0F2FE"/>
<rect x="55" y="16" width="110" height="12" fill="#3254FE"/>
<path d="M225.264 40.016L249.24 48.8L225.264 57.512V66.512L259.536 53.48V44.12L225.264 31.088V40.016Z" fill="black"/>
<path d="M44.736 40.016L20.76 48.8L44.736 57.512V66.512L10.464 53.48V44.12L44.736 31.088V40.016Z" fill="black"/>
</svg>
